<svg viewBox="0 0 1440 824" fill="none" xmlns="http://www.w3.org/2000/svg">
<rect x="1407" y="797" width="797" height="1.00003" transform="rotate(-90 1407 797)" fill="#000F14"/>
<rect x="1376" y="797" width="797" height="1.00003" transform="rotate(-90 1376 797)" fill="#000F14"/>
<rect x="1345" y="797" width="797" height="1.00003" transform="rotate(-90 1345 797)" fill="#000F14"/>
<rect x="1314" y="797" width="797" height="1.00003" transform="rotate(-90 1314 797)" fill="#000F14"/>
<rect x="1283" y="797" width="797" height="1.00003" transform="rotate(-90 1283 797)" fill="#000F14"/>
<rect x="1252" y="797" width="797" height="1.00003" transform="rotate(-90 1252 797)" fill="#000F14"/>
<rect x="1221" y="797" width="797" height="1.00003" transform="rotate(-90 1221 797)" fill="#000F14"/>
<rect x="1190" y="797" width="797" height="1.00003" transform="rotate(-90 1190 797)" fill="#000F14"/>
<rect x="1159" y="797" width="797" height="1.00003" transform="rotate(-90 1159 797)" fill="#000F14"/>
<rect x="1128" y="797" width="797" height="1.00003" transform="rotate(-90 1128 797)" fill="#000F14"/>
<rect x="1097" y="797" width="797" height="1.00003" transform="rotate(-90 1097 797)" fill="#000F14"/>
<rect x="1066" y="797" width="797" height="1.00003" transform="rotate(-90 1066 797)" fill="#000F14"/>
<rect x="1035" y="797" width="797" height="1.00003" transform="rotate(-90 1035 797)" fill="#000F14"/>
<rect x="1004" y="797" width="797" height="1.00003" transform="rotate(-90 1004 797)" fill="#000F14"/>
<rect x="973" y="797" width="797" height="1.00003" transform="rotate(-90 973 797)" fill="#000F14"/>
<rect x="942" y="797" width="797" height="1.00003" transform="rotate(-90 942 797)" fill="#000F14"/>
<rect x="911" y="797" width="797" height="1.00003" transform="rotate(-90 911 797)" fill="#000F14"/>
<rect x="880" y="797" width="797" height="1.00003" transform="rotate(-90 880 797)" fill="#000F14"/>
<rect x="849" y="797" width="797" height="1.00003" transform="rotate(-90 849 797)" fill="#000F14"/>
<rect x="818" y="797" width="797" height="1.00003" transform="rotate(-90 818 797)" fill="#000F14"/>
<rect x="787" y="797" width="797" height="1.00003" transform="rotate(-90 787 797)" fill="#000F14"/>
<rect x="756" y="797" width="797" height="1.00003" transform="rotate(-90 756 797)" fill="#000F14"/>
<rect x="725" y="797" width="797" height="1.00003" transform="rotate(-90 725 797)" fill="#000F14"/>
<rect x="694" y="797" width="797" height="1.00003" transform="rotate(-90 694 797)" fill="#000F14"/>
<rect x="663" y="797" width="797" height="1.00003" transform="rotate(-90 663 797)" fill="#000F14"/>
<rect x="632" y="797" width="797" height="1.00003" transform="rotate(-90 632 797)" fill="#000F14"/>
<rect x="601" y="797" width="797" height="1.00003" transform="rotate(-90 601 797)" fill="#000F14"/>
<rect x="570" y="797" width="797" height="1.00003" transform="rotate(-90 570 797)" fill="#000F14"/>
<rect x="539" y="797" width="797" height="1.00003" transform="rotate(-90 539 797)" fill="#000F14"/>
<rect x="508" y="797" width="797" height="1.00003" transform="rotate(-90 508 797)" fill="#000F14"/>
<rect x="477" y="797" width="797" height="1.00003" transform="rotate(-90 477 797)" fill="#000F14"/>
<rect x="446" y="797" width="797" height="1.00003" transform="rotate(-90 446 797)" fill="#000F14"/>
<rect x="415" y="797" width="797" height="1.00003" transform="rotate(-90 415 797)" fill="#000F14"/>
<rect x="384" y="797" width="797" height="1.00003" transform="rotate(-90 384 797)" fill="#000F14"/>
<rect x="353" y="797" width="797" height="1.00003" transform="rotate(-90 353 797)" fill="#000F14"/>
<rect x="322" y="797" width="797" height="1.00003" transform="rotate(-90 322 797)" fill="#000F14"/>
<rect x="291" y="797" width="797" height="1.00003" transform="rotate(-90 291 797)" fill="#000F14"/>
<rect x="260" y="797" width="797" height="1.00003" transform="rotate(-90 260 797)" fill="#000F14"/>
<rect x="229" y="797" width="797" height="1.00003" transform="rotate(-90 229 797)" fill="#000F14"/>
<rect x="198" y="797" width="797" height="1.00003" transform="rotate(-90 198 797)" fill="#000F14"/>
<rect x="167" y="797" width="797" height="1.00003" transform="rotate(-90 167 797)" fill="#000F14"/>
<rect x="136" y="797" width="797" height="1.00003" transform="rotate(-90 136 797)" fill="#000F14"/>
<rect x="105" y="797" width="797" height="1.00003" transform="rotate(-90 105 797)" fill="#000F14"/>
<rect x="74" y="797" width="797" height="1.00003" transform="rotate(-90 74 797)" fill="#000F14"/>
<rect x="43" y="797" width="797" height="1.00003" transform="rotate(-90 43 797)" fill="#000F14"/>
<rect x="12" y="797" width="797" height="1.00003" transform="rotate(-90 12 797)" fill="#000F14"/>
<rect y="31" width="1440" height="1" fill="#000F14"/>
<rect y="64" width="1440" height="1" fill="#000F14"/>
<rect y="97" width="1440" height="1" fill="#000F14"/>
<rect y="130" width="1440" height="1" fill="#000F14"/>
<rect y="163" width="1440" height="1" fill="#000F14"/>
<rect y="196" width="1440" height="1" fill="#000F14"/>
<rect y="229" width="1440" height="1" fill="#000F14"/>
<rect y="262" width="1440" height="1" fill="#000F14"/>
<rect y="295" width="1440" height="1" fill="#000F14"/>
<rect y="328" width="1440" height="1" fill="#000F14"/>
<rect y="361" width="1440" height="1" fill="#000F14"/>
<rect y="394" width="1440" height="1" fill="#000F14"/>
<rect y="427" width="1440" height="1" fill="#000F14"/>
<rect y="460" width="1440" height="1" fill="#000F14"/>
<rect y="493" width="1440" height="1" fill="#000F14"/>
<rect y="526" width="1440" height="1" fill="#000F14"/>
<rect y="559" width="1440" height="1" fill="#000F14"/>
<rect y="592" width="1440" height="1" fill="#000F14"/>
<rect y="625" width="1440" height="1" fill="#000F14"/>
<rect y="658" width="1440" height="1" fill="#000F14"/>
<rect y="691" width="1440" height="1" fill="#000F14"/>
<rect y="724" width="1440" height="1" fill="#000F14"/>
<rect y="757" width="1440" height="1" fill="#000F14"/>
<rect y="790" width="1440" height="1" fill="#000F14"/>
<rect y="823" width="1440" height="1" fill="#000F14"/>
<rect class="square-1" x="1314" y="164" width="32" height="32" fill="#000F14"/>
<rect class="square-2" x="1252" y="395" width="32" height="32" fill="#000F14"/>
<rect class="square-3" x="1314" y="626" width="32" height="32" fill="#000F14"/>
<rect class="square-4" x="942" y="131" width="32" height="32" fill="#000F14"/>
<rect class="square-5" x="757" y="560" width="32" height="32" fill="#000F14"/>
<rect class="square-1" x="477" y="692" width="32" height="32" fill="#000F14"/>
<rect class="square-6" x="43" y="659" width="32" height="32" fill="#000F14"/>
<rect class="square-7" x="12" y="131" width="32" height="32" fill="#000F14"/>
</svg>
