<svg viewBox="0 0 588 397" fill="none" xmlns="http://www.w3.org/2000/svg">
<g id="Graph 2" class="graph-2">
<text id="70" fill="#BEFFF9" xml:space="preserve" style="white-space: pre" font-family="Raleway" font-size="16" letter-spacing="0em"><tspan x="0" y="40.648">70</tspan></text>
<text id="52,5" fill="#BEFFF9" xml:space="preserve" style="white-space: pre" font-family="Raleway" font-size="16" letter-spacing="0em"><tspan x="0" y="103.648">52,5</tspan></text>
<text id="35" fill="#BEFFF9" xml:space="preserve" style="white-space: pre" font-family="Raleway" font-size="16" letter-spacing="0em"><tspan x="0" y="166.648">35</tspan></text>
<text id="17,5" fill="#BEFFF9" xml:space="preserve" style="white-space: pre" font-family="Raleway" font-size="16" letter-spacing="0em"><tspan x="0" y="229.648">17,5</tspan></text>
<text id="0" fill="#BEFFF9" xml:space="preserve" style="white-space: pre" font-family="Raleway" font-size="16" letter-spacing="0em"><tspan x="0" y="292.648">0</tspan></text>
<text id="Oxford Grammar" fill="#BEFFF9" xml:space="preserve" style="white-space: pre" font-family="Raleway" font-size="14" letter-spacing="0em"><tspan x="50.0371" y="314.442">Oxford Grammar</tspan></text>
<text id="Grammar Focus Language Teaching" fill="#B8C4C9" xml:space="preserve" style="white-space: pre" font-family="Raleway" font-size="14" letter-spacing="0em"><tspan x="74" y="351.442">Grammar Focus Language Teaching</tspan></text>
<text id="Comprehensible Input Approach" fill="#B8C4C9" xml:space="preserve" style="white-space: pre" font-family="Raleway" font-size="14" letter-spacing="0em"><tspan x="74" y="375.442">Comprehensible Input Approach</tspan></text>
<text id="From Krashen, 2013" fill="#B8C4C9" xml:space="preserve" style="white-space: pre" font-family="Raleway" font-size="14" font-style="italic" letter-spacing="0em"><tspan x="432.238" y="347.442">From Krashen, 2013</tspan></text>
<text id="PET: Reading" fill="#BEFFF9" xml:space="preserve" style="white-space: pre" font-family="Raleway" font-size="14" letter-spacing="0em"><tspan x="205.192" y="314.442">PET: Reading</tspan></text>
<text id="PET: Listening" fill="#BEFFF9" xml:space="preserve" style="white-space: pre" font-family="Raleway" font-size="14" letter-spacing="0em"><tspan x="335.472" y="314.442">PET: Listening</tspan></text>
<text id="PET: Writing" fill="#BEFFF9" xml:space="preserve" style="white-space: pre" font-family="Raleway" font-size="14" letter-spacing="0em"><tspan x="470.322" y="314.442">PET: Writing</tspan></text>
<rect id="Rectangle 2171" opacity="0.5" x="38" y="40" width="521" height="1" fill="url(#paint0_linear_103_1355)"/>
<rect id="Rectangle 2172" opacity="0.5" x="38" y="104" width="521" height="1" fill="url(#paint1_linear_103_1355)"/>
<rect id="Rectangle 2173" opacity="0.5" x="38" y="167" width="521" height="1" fill="url(#paint2_linear_103_1355)"/>
<rect id="Rectangle 2174" opacity="0.5" x="38" y="230" width="521" height="1" fill="url(#paint3_linear_103_1355)"/>
<rect id="Rectangle 2186" opacity="0.5" x="57" y="292" width="283" height="1.00001" transform="rotate(-90 57 292)" fill="url(#paint4_linear_103_1355)"/>
<rect id="Rectangle 2187" opacity="0.5" x="99" y="292" width="283" height="1.00001" transform="rotate(-90 99 292)" fill="url(#paint5_linear_103_1355)"/>
<rect id="Rectangle 2188" opacity="0.5" x="141" y="292" width="283" height="1.00001" transform="rotate(-90 141 292)" fill="url(#paint6_linear_103_1355)"/>
<rect id="Rectangle 2189" opacity="0.5" x="183" y="292" width="283" height="1.00001" transform="rotate(-90 183 292)" fill="url(#paint7_linear_103_1355)"/>
<rect id="Rectangle 2190" opacity="0.5" x="225" y="292" width="283" height="1.00001" transform="rotate(-90 225 292)" fill="url(#paint8_linear_103_1355)"/>
<rect id="Rectangle 2191" opacity="0.5" x="267" y="292" width="283" height="1.00001" transform="rotate(-90 267 292)" fill="url(#paint9_linear_103_1355)"/>
<rect id="Rectangle 2192" opacity="0.5" x="309" y="292" width="283" height="1.00001" transform="rotate(-90 309 292)" fill="url(#paint10_linear_103_1355)"/>
<rect id="Rectangle 2193" opacity="0.5" x="351" y="292" width="283" height="1.00001" transform="rotate(-90 351 292)" fill="url(#paint11_linear_103_1355)"/>
<rect id="Rectangle 2194" opacity="0.5" x="393" y="292" width="283" height="1.00001" transform="rotate(-90 393 292)" fill="url(#paint12_linear_103_1355)"/>
<rect id="Rectangle 2195" opacity="0.5" x="435" y="292" width="283" height="1.00001" transform="rotate(-90 435 292)" fill="url(#paint13_linear_103_1355)"/>
<rect id="Rectangle 2196" opacity="0.5" x="477" y="292" width="283" height="1.00001" transform="rotate(-90 477 292)" fill="url(#paint14_linear_103_1355)"/>
<rect id="Rectangle 2197" opacity="0.5" x="519" y="292" width="283" height="1.00001" transform="rotate(-90 519 292)" fill="url(#paint15_linear_103_1355)"/>
<rect id="Rectangle 2175" x="38" y="292" width="521" height="1" fill="#408880"/>
<g id="bluebar-1" class="bluebar-1">
<path d="M57 136C57 132.686 59.6863 130 63 130H94C97.3137 130 100 132.686 100 136V292H57V136Z" fill="url(#paint16_linear_103_1355)"/>
<path fill-rule="evenodd" clip-rule="evenodd" d="M57 292H58V136C58 133.239 60.2386 131 63 131H94C96.7614 131 99 133.239 99 136V292H100V136C100 132.686 97.3137 130 94 130H63C59.6863 130 57 132.686 57 136V292Z" fill="url(#paint17_linear_103_1355)"/>
</g>
<g id="greenbar-1" class="greenbar-1" filter="url(#filter0_d_103_1355)">
<path d="M104 53C104 49.6863 106.686 47 110 47H141C144.314 47 147 49.6863 147 53V292H104V53Z" fill="url(#paint18_linear_103_1355)"/>
<path fill-rule="evenodd" clip-rule="evenodd" d="M104 292H105V53C105 50.2386 107.239 48 110 48H141C143.761 48 146 50.2386 146 53V292H147V53C147 49.6863 144.314 47 141 47H110C106.686 47 104 49.6863 104 53C104 53 104 53 104 53V292Z" fill="#7DFDEB"/>
</g>
<g id="bluebar-2" class="bluebar-2">
<path d="M203 248C203 244.686 205.686 242 209 242H240C243.314 242 246 244.686 246 248V292H203V248Z" fill="url(#paint19_linear_103_1355)"/>
<path fill-rule="evenodd" clip-rule="evenodd" d="M203 292H204V248C204 245.239 206.239 243 209 243H240C242.761 243 245 245.239 245 248V292H246V248C246 244.686 243.314 242 240 242H209C205.686 242 203 244.686 203 248V292Z" fill="url(#paint20_linear_103_1355)"/>
</g>
<g id="greenbar-2" class="greenbar-2" filter="url(#filter1_d_103_1355)">
<path d="M250 218C250 214.686 252.686 212 256 212H287C290.314 212 293 214.686 293 218V292H250V218Z" fill="url(#paint21_linear_103_1355)"/>
<path fill-rule="evenodd" clip-rule="evenodd" d="M250 292H251V218C251 215.239 253.239 213 256 213H287C289.761 213 292 215.239 292 218V292H293V218C293 214.686 290.314 212 287 212H256C252.686 212 250 214.686 250 218V292Z" fill="#7DFDEB"/>
</g>
<g id="bluebar-3" class="bluebar-3">
<path d="M336 237C336 233.686 338.686 231 342 231H373C376.314 231 379 233.686 379 237V292H336V237Z" fill="url(#paint22_linear_103_1355)"/>
<path fill-rule="evenodd" clip-rule="evenodd" d="M336 292H337V237C337 234.239 339.239 232 342 232H373C375.761 232 378 234.239 378 237V292H379V237C379 233.686 376.314 231 373 231H342C338.686 231 336 233.686 336 237V292Z" fill="url(#paint23_linear_103_1355)"/>
</g>
<g id="greenbar-3" class="greenbar-3" filter="url(#filter2_d_103_1355)">
<path d="M383 198C383 194.686 385.686 192 389 192H420C423.314 192 426 194.686 426 198V292H383V198Z" fill="url(#paint24_linear_103_1355)"/>
<path fill-rule="evenodd" clip-rule="evenodd" d="M383 292H384V198C384 195.239 386.239 193 389 193H420C422.761 193 425 195.239 425 198V292H426V198C426 194.686 423.314 192 420 192H389C385.686 192 383 194.686 383 198V292Z" fill="#7DFDEB"/>
</g>
<g id="bluebar-4" class="bluebar-4">
<path d="M464 273C464 269.686 466.686 267 470 267H501C504.314 267 507 269.686 507 273V292H464V273Z" fill="url(#paint25_linear_103_1355)"/>
<path fill-rule="evenodd" clip-rule="evenodd" d="M464 292H465V273C465 270.239 467.239 268 470 268H501C503.761 268 506 270.239 506 273V292H507V273C507 269.686 504.314 267 501 267H470C466.686 267 464 269.686 464 273V292Z" fill="url(#paint26_linear_103_1355)"/>
</g>
<g id="greenbar-4" class="greenbar-4" filter="url(#filter3_d_103_1355)">
<path d="M511 226C511 222.686 513.686 220 517 220H548C551.314 220 554 222.686 554 226V292H511V226Z" fill="url(#paint27_linear_103_1355)"/>
<path fill-rule="evenodd" clip-rule="evenodd" d="M511 292H512V226C512 223.239 514.239 221 517 221H548C550.761 221 553 223.239 553 226V292H554V226C554 222.686 551.314 220 548 220H517C513.686 220 511 222.686 511 226V292Z" fill="#7DFDEB"/>
</g>
<rect id="Rectangle 2184" x="50" y="339" width="16" height="16" fill="#006188"/>
<g id="Rectangle 2185" filter="url(#filter4_d_103_1355)">
<rect x="50" y="363" width="16" height="16" fill="#7DFDEB"/>
</g>
</g>
<defs>
<filter id="filter0_d_103_1355" x="70" y="0" width="111" height="313" filterUnits="userSpaceOnUse" color-interpolation-filters="sRGB">
<feFlood flood-opacity="0" result="BackgroundImageFix"/>
<feColorMatrix in="SourceAlpha" type="matrix" values="0 0 0 0 0 0 0 0 0 0 0 0 0 0 0 0 0 0 127 0" result="hardAlpha"/>
<feOffset dy="-13"/>
<feGaussianBlur stdDeviation="17"/>
<feComposite in2="hardAlpha" operator="out"/>
<feColorMatrix type="matrix" values="0 0 0 0 0.490196 0 0 0 0 0.992157 0 0 0 0 0.921569 0 0 0 0.1 0"/>
<feBlend mode="normal" in2="BackgroundImageFix" result="effect1_dropShadow_103_1355"/>
<feBlend mode="normal" in="SourceGraphic" in2="effect1_dropShadow_103_1355" result="shape"/>
</filter>
<filter id="filter1_d_103_1355" x="216" y="165" width="111" height="148" filterUnits="userSpaceOnUse" color-interpolation-filters="sRGB">
<feFlood flood-opacity="0" result="BackgroundImageFix"/>
<feColorMatrix in="SourceAlpha" type="matrix" values="0 0 0 0 0 0 0 0 0 0 0 0 0 0 0 0 0 0 127 0" result="hardAlpha"/>
<feOffset dy="-13"/>
<feGaussianBlur stdDeviation="17"/>
<feComposite in2="hardAlpha" operator="out"/>
<feColorMatrix type="matrix" values="0 0 0 0 0.490196 0 0 0 0 0.992157 0 0 0 0 0.921569 0 0 0 0.1 0"/>
<feBlend mode="normal" in2="BackgroundImageFix" result="effect1_dropShadow_103_1355"/>
<feBlend mode="normal" in="SourceGraphic" in2="effect1_dropShadow_103_1355" result="shape"/>
</filter>
<filter id="filter2_d_103_1355" x="349" y="145" width="111" height="168" filterUnits="userSpaceOnUse" color-interpolation-filters="sRGB">
<feFlood flood-opacity="0" result="BackgroundImageFix"/>
<feColorMatrix in="SourceAlpha" type="matrix" values="0 0 0 0 0 0 0 0 0 0 0 0 0 0 0 0 0 0 127 0" result="hardAlpha"/>
<feOffset dy="-13"/>
<feGaussianBlur stdDeviation="17"/>
<feComposite in2="hardAlpha" operator="out"/>
<feColorMatrix type="matrix" values="0 0 0 0 0.490196 0 0 0 0 0.992157 0 0 0 0 0.921569 0 0 0 0.1 0"/>
<feBlend mode="normal" in2="BackgroundImageFix" result="effect1_dropShadow_103_1355"/>
<feBlend mode="normal" in="SourceGraphic" in2="effect1_dropShadow_103_1355" result="shape"/>
</filter>
<filter id="filter3_d_103_1355" x="477" y="173" width="111" height="140" filterUnits="userSpaceOnUse" color-interpolation-filters="sRGB">
<feFlood flood-opacity="0" result="BackgroundImageFix"/>
<feColorMatrix in="SourceAlpha" type="matrix" values="0 0 0 0 0 0 0 0 0 0 0 0 0 0 0 0 0 0 127 0" result="hardAlpha"/>
<feOffset dy="-13"/>
<feGaussianBlur stdDeviation="17"/>
<feComposite in2="hardAlpha" operator="out"/>
<feColorMatrix type="matrix" values="0 0 0 0 0.490196 0 0 0 0 0.992157 0 0 0 0 0.921569 0 0 0 0.1 0"/>
<feBlend mode="normal" in2="BackgroundImageFix" result="effect1_dropShadow_103_1355"/>
<feBlend mode="normal" in="SourceGraphic" in2="effect1_dropShadow_103_1355" result="shape"/>
</filter>
<filter id="filter4_d_103_1355" x="32" y="345" width="52" height="52" filterUnits="userSpaceOnUse" color-interpolation-filters="sRGB">
<feFlood flood-opacity="0" result="BackgroundImageFix"/>
<feColorMatrix in="SourceAlpha" type="matrix" values="0 0 0 0 0 0 0 0 0 0 0 0 0 0 0 0 0 0 127 0" result="hardAlpha"/>
<feOffset/>
<feGaussianBlur stdDeviation="9"/>
<feComposite in2="hardAlpha" operator="out"/>
<feColorMatrix type="matrix" values="0 0 0 0 0.490196 0 0 0 0 0.992157 0 0 0 0 0.921569 0 0 0 0.5 0"/>
<feBlend mode="normal" in2="BackgroundImageFix" result="effect1_dropShadow_103_1355"/>
<feBlend mode="normal" in="SourceGraphic" in2="effect1_dropShadow_103_1355" result="shape"/>
</filter>
<linearGradient id="paint0_linear_103_1355" x1="38" y1="41.0031" x2="559" y2="41.0031" gradientUnits="userSpaceOnUse">
<stop stop-color="#408880"/>
<stop offset="1" stop-color="#408880" stop-opacity="0"/>
</linearGradient>
<linearGradient id="paint1_linear_103_1355" x1="38" y1="105.003" x2="559" y2="105.003" gradientUnits="userSpaceOnUse">
<stop stop-color="#408880"/>
<stop offset="1" stop-color="#408880" stop-opacity="0"/>
</linearGradient>
<linearGradient id="paint2_linear_103_1355" x1="38" y1="168.003" x2="559" y2="168.003" gradientUnits="userSpaceOnUse">
<stop stop-color="#408880"/>
<stop offset="1" stop-color="#408880" stop-opacity="0"/>
</linearGradient>
<linearGradient id="paint3_linear_103_1355" x1="38" y1="231.003" x2="559" y2="231.003" gradientUnits="userSpaceOnUse">
<stop stop-color="#408880"/>
<stop offset="1" stop-color="#408880" stop-opacity="0"/>
</linearGradient>
<linearGradient id="paint4_linear_103_1355" x1="57" y1="292" x2="340" y2="292" gradientUnits="userSpaceOnUse">
<stop stop-color="#408880"/>
<stop offset="1" stop-color="#408880" stop-opacity="0"/>
</linearGradient>
<linearGradient id="paint5_linear_103_1355" x1="99" y1="292" x2="382" y2="292" gradientUnits="userSpaceOnUse">
<stop stop-color="#408880"/>
<stop offset="1" stop-color="#408880" stop-opacity="0"/>
</linearGradient>
<linearGradient id="paint6_linear_103_1355" x1="141" y1="292" x2="424" y2="292" gradientUnits="userSpaceOnUse">
<stop stop-color="#408880"/>
<stop offset="1" stop-color="#408880" stop-opacity="0"/>
</linearGradient>
<linearGradient id="paint7_linear_103_1355" x1="183" y1="292" x2="466" y2="292" gradientUnits="userSpaceOnUse">
<stop stop-color="#408880"/>
<stop offset="1" stop-color="#408880" stop-opacity="0"/>
</linearGradient>
<linearGradient id="paint8_linear_103_1355" x1="225" y1="292" x2="508" y2="292" gradientUnits="userSpaceOnUse">
<stop stop-color="#408880"/>
<stop offset="1" stop-color="#408880" stop-opacity="0"/>
</linearGradient>
<linearGradient id="paint9_linear_103_1355" x1="267" y1="292" x2="550" y2="292" gradientUnits="userSpaceOnUse">
<stop stop-color="#408880"/>
<stop offset="1" stop-color="#408880" stop-opacity="0"/>
</linearGradient>
<linearGradient id="paint10_linear_103_1355" x1="309" y1="292" x2="592" y2="292" gradientUnits="userSpaceOnUse">
<stop stop-color="#408880"/>
<stop offset="1" stop-color="#408880" stop-opacity="0"/>
</linearGradient>
<linearGradient id="paint11_linear_103_1355" x1="351" y1="292" x2="634" y2="292" gradientUnits="userSpaceOnUse">
<stop stop-color="#408880"/>
<stop offset="1" stop-color="#408880" stop-opacity="0"/>
</linearGradient>
<linearGradient id="paint12_linear_103_1355" x1="393" y1="292" x2="676" y2="292" gradientUnits="userSpaceOnUse">
<stop stop-color="#408880"/>
<stop offset="1" stop-color="#408880" stop-opacity="0"/>
</linearGradient>
<linearGradient id="paint13_linear_103_1355" x1="435" y1="292" x2="718" y2="292" gradientUnits="userSpaceOnUse">
<stop stop-color="#408880"/>
<stop offset="1" stop-color="#408880" stop-opacity="0"/>
</linearGradient>
<linearGradient id="paint14_linear_103_1355" x1="477" y1="292" x2="760" y2="292" gradientUnits="userSpaceOnUse">
<stop stop-color="#408880"/>
<stop offset="1" stop-color="#408880" stop-opacity="0"/>
</linearGradient>
<linearGradient id="paint15_linear_103_1355" x1="519" y1="292" x2="802" y2="292" gradientUnits="userSpaceOnUse">
<stop stop-color="#408880"/>
<stop offset="1" stop-color="#408880" stop-opacity="0"/>
</linearGradient>
<linearGradient id="paint16_linear_103_1355" x1="78.5" y1="130" x2="78.5" y2="292" gradientUnits="userSpaceOnUse">
<stop stop-color="#006188"/>
<stop offset="1" stop-color="#006188" stop-opacity="0"/>
</linearGradient>
<linearGradient id="paint17_linear_103_1355" x1="78.5" y1="130" x2="78.5" y2="292" gradientUnits="userSpaceOnUse">
<stop stop-color="#006188"/>
<stop offset="1" stop-color="#006188" stop-opacity="0"/>
</linearGradient>
<linearGradient id="paint18_linear_103_1355" x1="125.5" y1="47" x2="125.5" y2="292" gradientUnits="userSpaceOnUse">
<stop stop-color="#7DFDEB"/>
<stop offset="1" stop-color="#7DFDEB"/>
</linearGradient>
<linearGradient id="paint19_linear_103_1355" x1="224.5" y1="242" x2="224.5" y2="292" gradientUnits="userSpaceOnUse">
<stop stop-color="#006188"/>
<stop offset="1" stop-color="#006188" stop-opacity="0"/>
</linearGradient>
<linearGradient id="paint20_linear_103_1355" x1="224.5" y1="242" x2="224.5" y2="292" gradientUnits="userSpaceOnUse">
<stop stop-color="#006188"/>
<stop offset="1" stop-color="#006188" stop-opacity="0"/>
</linearGradient>
<linearGradient id="paint21_linear_103_1355" x1="271.5" y1="212" x2="271.5" y2="292" gradientUnits="userSpaceOnUse">
<stop stop-color="#7DFDEB"/>
<stop offset="1" stop-color="#7DFDEB"/>
</linearGradient>
<linearGradient id="paint22_linear_103_1355" x1="357.5" y1="231" x2="357.5" y2="292" gradientUnits="userSpaceOnUse">
<stop stop-color="#006188"/>
<stop offset="1" stop-color="#006188" stop-opacity="0"/>
</linearGradient>
<linearGradient id="paint23_linear_103_1355" x1="357.5" y1="231" x2="357.5" y2="292" gradientUnits="userSpaceOnUse">
<stop stop-color="#006188"/>
<stop offset="1" stop-color="#006188" stop-opacity="0"/>
</linearGradient>
<linearGradient id="paint24_linear_103_1355" x1="404.5" y1="192" x2="404.5" y2="292" gradientUnits="userSpaceOnUse">
<stop stop-color="#7DFDEB"/>
<stop offset="1" stop-color="#7DFDEB"/>
</linearGradient>
<linearGradient id="paint25_linear_103_1355" x1="485.5" y1="267" x2="485.5" y2="292" gradientUnits="userSpaceOnUse">
<stop stop-color="#006188"/>
<stop offset="1" stop-color="#006188" stop-opacity="0"/>
</linearGradient>
<linearGradient id="paint26_linear_103_1355" x1="485.5" y1="267" x2="485.5" y2="292" gradientUnits="userSpaceOnUse">
<stop stop-color="#006188"/>
<stop offset="1" stop-color="#006188" stop-opacity="0"/>
</linearGradient>
<linearGradient id="paint27_linear_103_1355" x1="532.5" y1="220" x2="532.5" y2="292" gradientUnits="userSpaceOnUse">
<stop stop-color="#7DFDEB"/>
<stop offset="1" stop-color="#7DFDEB"/>
</linearGradient>
</defs>
</svg>
