<svg width="32" height="32" viewBox="0 0 32 32" fill="none" xmlns="http://www.w3.org/2000/svg">
<rect width="32" height="32" rx="2" fill="#002433"/>
<g clip-path="url(#clip0_103_1345)">
<path d="M16 23.5C20.1421 23.5 23.5 20.1421 23.5 16C23.5 11.8579 20.1421 8.5 16 8.5C11.8579 8.5 8.5 11.8579 8.5 16C8.5 20.1421 11.8579 23.5 16 23.5Z" stroke="#7DFDEB" stroke-width="1.5" stroke-linecap="round" stroke-linejoin="round"/>
<path d="M13.8174 13.75C13.9937 13.2488 14.3417 12.8261 14.7998 12.5568C15.258 12.2876 15.7966 12.1892 16.3203 12.279C16.844 12.3689 17.319 12.6411 17.6612 13.0476C18.0034 13.4541 18.1907 13.9686 18.1899 14.5C18.1899 16 15.9399 16.75 15.9399 16.75" stroke="#7DFDEB" stroke-width="1.5" stroke-linecap="round" stroke-linejoin="round"/>
<path d="M16 19.75H16.0075" stroke="#7DFDEB" stroke-width="1.5" stroke-linecap="round" stroke-linejoin="round"/>
</g>
<defs>
<clipPath id="clip0_103_1345">
<rect width="18" height="18" fill="white" transform="translate(7 7)"/>
</clipPath>
</defs>
</svg>
