<svg width="32" height="32" viewBox="0 0 32 32" fill="none" xmlns="http://www.w3.org/2000/svg">
<rect width="32" height="32" rx="2" fill="#002433"/>
<path d="M22.7497 16.5925C22.6317 17.8692 22.1526 19.0858 21.3684 20.1001C20.5842 21.1144 19.5273 21.8843 18.3215 22.3199C17.1156 22.7555 15.8107 22.8386 14.5593 22.5596C13.3079 22.2805 12.1619 21.6509 11.2554 20.7443C10.3488 19.8378 9.71914 18.6917 9.44011 17.4404C9.16109 16.189 9.24422 14.8841 9.67978 13.6782C10.1153 12.4724 10.8853 11.4155 11.8996 10.6313C12.9139 9.8471 14.1305 9.36798 15.4072 9.25C14.6597 10.2612 14.3001 11.5071 14.3936 12.7611C14.4871 14.015 15.0276 15.1938 15.9167 16.0829C16.8059 16.9721 17.9846 17.5126 19.2386 17.6061C20.4926 17.6996 21.7385 17.3399 22.7497 16.5925Z" stroke="#7DFDEB" stroke-width="1.5" stroke-linecap="round" stroke-linejoin="round"/>
</svg>
