<svg width="32" height="32" viewBox="0 0 32 32" fill="none" xmlns="http://www.w3.org/2000/svg">
<rect width="32" height="32" rx="2" fill="#002433"/>
<path d="M8.5 11.25H13C13.7956 11.25 14.5587 11.5661 15.1213 12.1287C15.6839 12.6913 16 13.4544 16 14.25V24.75C16 24.1533 15.7629 23.581 15.341 23.159C14.919 22.7371 14.3467 22.5 13.75 22.5H8.5V11.25Z" stroke="#7DFDEB" stroke-width="1.5" stroke-linecap="round" stroke-linejoin="round"/>
<path d="M23.5 11.25H19C18.2044 11.25 17.4413 11.5661 16.8787 12.1287C16.3161 12.6913 16 13.4544 16 14.25V24.75C16 24.1533 16.2371 23.581 16.659 23.159C17.081 22.7371 17.6533 22.5 18.25 22.5H23.5V11.25Z" stroke="#7DFDEB" stroke-width="1.5" stroke-linecap="round" stroke-linejoin="round"/>
</svg>
