<svg width="40" height="40" viewBox="0 0 40 40" fill="none" xmlns="http://www.w3.org/2000/svg">
<circle cx="20" cy="20" r="20" fill="#002433"/>
<path d="M23.905 14.0013C23.145 14.0012 22.4153 14.2994 21.8729 14.8319C21.3305 15.3643 21.0189 16.0884 21.005 16.8483L20.977 18.4233C20.9754 18.5079 20.9559 18.5911 20.9198 18.6676C20.8837 18.7441 20.8319 18.8121 20.7676 18.8672C20.7034 18.9222 20.6283 18.9631 20.5472 18.987C20.4661 19.011 20.3808 19.0176 20.297 19.0063L18.736 18.7943C16.682 18.5143 14.714 17.5683 12.826 15.9953C12.228 19.3053 13.396 21.5983 16.209 23.3673L17.956 24.4653C18.039 24.5175 18.108 24.5892 18.1568 24.6741C18.2057 24.7591 18.233 24.8548 18.2364 24.9528C18.2397 25.0507 18.219 25.1481 18.1761 25.2362C18.1331 25.3243 18.0692 25.4006 17.99 25.4583L16.398 26.6213C17.345 26.6803 18.244 26.6383 18.99 26.4903C23.708 25.5483 26.845 21.9983 26.845 16.1423C26.845 15.6643 25.833 14.0013 23.905 14.0013ZM19.005 16.8113C19.0225 15.8473 19.3239 14.91 19.8716 14.1165C20.4192 13.3231 21.1888 12.7088 22.0839 12.3507C22.979 11.9925 23.9599 11.9064 24.9037 12.103C25.8476 12.2997 26.7124 12.7704 27.39 13.4563C28.101 13.4513 28.706 13.6313 30.059 12.8113C29.724 14.4513 29.559 15.1633 28.845 16.1423C28.845 23.7843 24.148 27.5003 19.382 28.4513C16.114 29.1033 11.362 28.0323 10 26.6103C10.694 26.5563 13.514 26.2533 15.144 25.0603C13.765 24.1513 8.276 20.9213 11.883 12.2373C13.576 14.2143 15.293 15.5603 17.033 16.2743C18.191 16.7493 18.475 16.7393 19.006 16.8123L19.005 16.8113Z" fill="#BEFFF9"/>
</svg>
