<svg width="40" height="40" viewBox="0 0 40 40" fill="none" xmlns="http://www.w3.org/2000/svg">
<circle cx="20" cy="20" r="20" fill="#002433"/>
<path d="M27.606 14.995C27.53 14.697 27.314 14.472 27.067 14.403C26.63 14.28 24.5 14 20 14C15.5 14 13.372 14.28 12.931 14.403C12.687 14.471 12.471 14.696 12.394 14.995C12.285 15.419 12 17.196 12 20C12 22.804 12.285 24.58 12.394 25.006C12.47 25.303 12.686 25.528 12.932 25.596C13.372 25.72 15.5 26 20 26C24.5 26 26.629 25.72 27.069 25.597C27.313 25.529 27.529 25.304 27.606 25.005C27.715 24.581 28 22.8 28 20C28 17.2 27.715 15.42 27.606 14.995ZM29.543 14.498C30 16.28 30 20 30 20C30 20 30 23.72 29.543 25.502C29.289 26.487 28.546 27.262 27.605 27.524C25.896 28 20 28 20 28C20 28 14.107 28 12.395 27.524C11.45 27.258 10.708 26.484 10.457 25.502C10 23.72 10 20 10 20C10 20 10 16.28 10.457 14.498C10.711 13.513 11.454 12.738 12.395 12.476C14.107 12 20 12 20 12C20 12 25.896 12 27.605 12.476C28.55 12.742 29.292 13.516 29.543 14.498ZM18 23.5V16.5L24 20L18 23.5Z" fill="#BEFFF9"/>
</svg>
