<svg width="379" height="792" viewBox="0 0 379 792" fill="none" xmlns="http://www.w3.org/2000/svg">
<g id="iphone">
<rect id="Rectangle 428" width="378.682" height="792" rx="48" fill="#181A1D"/>
<rect id="Rectangle 430" x="167.405" y="20.7814" width="41.5627" height="4.61808" rx="2" fill="#C0C0C0"/>
<circle id="Ellipse 20" cx="228.595" cy="23.0904" r="4.61808" fill="#C0C0C0"/>
<path id="tela" fill-rule="evenodd" clip-rule="evenodd" d="M81.971 11.5455C86.4099 11.5455 90.0129 15.1241 90.0523 19.5537V23.4084C90.0523 32.7972 97.6635 40.4084 107.052 40.4084H272.784C282.173 40.4084 289.784 32.7972 289.784 23.4084V19.5194C289.842 15.1057 293.438 11.5454 297.865 11.5454H288.452C288.452 11.5453 288.451 11.5452 288.451 11.5451H329.137C350.124 11.5451 367.137 28.5583 367.137 49.5451V743.609C367.137 764.596 350.124 781.609 329.137 781.609H49.5449C28.5581 781.609 11.5449 764.596 11.5449 743.609V49.5451C11.5449 28.5583 28.5581 11.5451 49.5449 11.5451H91.3851C91.3851 11.5452 91.385 11.5453 91.385 11.5454H81.97V11.5455H81.971Z" fill="url(#paint0_linear_160_22)"/>

</g>

<defs>

<linearGradient id="paint0_linear_160_22" x1="603.649" y1="-1.08008e+06" x2="-1412.51" y2="-1.08008e+06" gradientUnits="userSpaceOnUse">
<stop stop-color="#A3A3A3"/>
<stop offset="1" stop-color="#505050"/>
</linearGradient>
</defs>
</svg>
