<svg width="379" height="792" viewBox="0 0 379 792" fill="none" xmlns="http://www.w3.org/2000/svg">
<g id="iphone">
<rect id="Rectangle 428" width="378.682" height="792" rx="48" fill="#181A1D"/>
<rect id="Rectangle 433" x="11.5449" y="11.5451" width="355.592" height="770.064" rx="38" fill="#8B0000" fill-opacity="0.6"/>
<path id="Union" fill-rule="evenodd" clip-rule="evenodd" d="M90.0521 19.5537C90.0126 15.1241 86.4096 11.5455 81.9708 11.5455H81.9697V11.5454H91.3847C93.9636 5.43966 100.007 1.15472 107.052 1.15472H272.784C279.829 1.15472 285.872 5.43966 288.451 11.5454H297.865C293.437 11.5454 289.841 15.1057 289.784 19.5194V23.4084C289.784 32.7972 282.173 40.4084 272.784 40.4084H107.052C97.6632 40.4084 90.0521 32.7972 90.0521 23.4084V19.5537Z" fill="#181A1D"/>
<rect id="Rectangle 430" x="167.405" y="20.7814" width="41.5627" height="4.61808" rx="2" fill="#C0C0C0"/>

<circle id="Ellipse 20" cx="228.595" cy="23.0904" r="4.61808" fill="#C0C0C0"/>
</g>
</svg>
