<svg width="285" height="594" viewBox="0 0 285 594" fill="none" xmlns="http://www.w3.org/2000/svg">
<g id="iphone-txts">
<rect id="Rectangle 428" width="284.012" height="594" rx="36" fill="#181A1D"/>
<rect id="Rectangle 430" x="125.554" y="15.586" width="31.172" height="3.46356" rx="1.5" fill="#C0C0C0"/>
<ellipse id="Ellipse 20" cx="171.446" cy="17.3178" rx="3.46356" ry="3.46356" fill="#C0C0C0"/>
<path id="Subtract" fill-rule="evenodd" clip-rule="evenodd" d="M61.4778 8.65914C64.8174 8.65914 67.5261 11.36 67.539 14.6966V17.5563C67.539 24.5979 73.2473 30.3063 80.289 30.3063H204.588C211.629 30.3063 217.338 24.5979 217.338 17.5563V14.6251C217.389 11.3214 220.083 8.65903 223.398 8.65902H216.338C216.338 8.65895 216.338 8.65888 216.338 8.65881H246.852C262.592 8.65881 275.352 21.4187 275.352 37.1588V557.707C275.352 573.447 262.592 586.207 246.852 586.207H37.1582C21.4181 586.207 8.6582 573.447 8.6582 557.707V37.1588C8.6582 21.4186 21.4181 8.65881 37.1582 8.65881H68.5385C68.5385 8.65888 68.5385 8.65895 68.5385 8.65902H61.477V8.65914L61.4778 8.65914Z" fill="#FEFDF9"/>
<g id="Screen-text-3" class="Screen-text-3">
<text id="Initial Summary" fill="#F7AB05" xml:space="preserve" style="white-space: pre" font-family="Raleway" font-size="16" font-weight="bold" letter-spacing="0em"><tspan x="22" y="103.148">Initial Summary</tspan></text>
<g id="Published in Brazil in 2017, this book is a humorous dialogue between two authors, Cl&#195;&#179;vis de Barros Filho and Pedro Calabrez. In some moments, readers feel in a conversation that could take place inside a bar, cafe, or the sofa in their living room. Through an informal discussion, the authors take a journey through the history of human thought from antiquity to the">
<text fill="#F7AB05" xml:space="preserve" style="white-space: pre" font-family="Raleway" font-size="14" letter-spacing="0em"><tspan x="22" y="129.942">Published in Brazil in 2017, this book </tspan><tspan x="22" y="147.942">is a humorous dialogue </tspan></text>
<text fill="#2E2E2E" xml:space="preserve" style="white-space: pre" font-family="Raleway" font-size="14" letter-spacing="0em"><tspan x="176.178" y="147.942">between two </tspan><tspan x="22" y="165.942">authors, Cl&#xf3;vis de Barros Filho and </tspan><tspan x="22" y="183.942">Pedro Calabrez. In some moments, </tspan><tspan x="22" y="201.942">readers feel in a conversation that </tspan><tspan x="22" y="219.942">could take place inside a bar, cafe, or </tspan><tspan x="22" y="237.942">the sofa in their living room. Through </tspan><tspan x="22" y="255.942">an informal discussion, the authors </tspan><tspan x="22" y="273.942">take a journey through the history of </tspan><tspan x="22" y="291.942">human thought from antiquity to the</tspan></text>
</g>
<rect id="Rectangle 2282" x="9" y="319" width="266" height="1" fill="#F3F2EE"/>
<text id="Resumo Inicial" fill="#F7AB05" xml:space="preserve" style="white-space: pre" font-family="Raleway" font-size="16" font-weight="bold" letter-spacing="0em"><tspan x="22" y="367.148">Resumo Inicial</tspan></text>
<g id="Publicado no Brasil em 2017, este livro &#195;&#169; um di&#195;&#161;logo bem-humorado entre dois autores, Cl&#195;&#179;vis de Barros Filho e Pedro Calabrez. Em alguns momentos, o leitor se sente em uma conversa que poderia ocorrer dentro de um bar, de um caf&#195;&#169;, ou no sof&#195;&#161; da sua sala. Por meio de uma conversa informal, os autores fazem uma viagem pela hist&#195;&#179;ria do pensamento">
<text fill="#F7AB05" xml:space="preserve" style="white-space: pre" font-family="Raleway" font-size="14" letter-spacing="0em"><tspan x="22" y="393.942">Publicado no Brasil em 2017, este </tspan><tspan x="22" y="411.942">livro &#xe9; um di&#xe1;logo bem-humorado </tspan><tspan x="22" y="429.942">entre </tspan></text>
<text fill="#2E2E2E" xml:space="preserve" style="white-space: pre" font-family="Raleway" font-size="14" letter-spacing="0em"><tspan x="59.4609" y="429.942">dois autores, Cl&#xf3;vis de Barros </tspan><tspan x="22" y="447.942">Filho e Pedro Calabrez. Em alguns </tspan><tspan x="22" y="465.942">momentos, o leitor se sente em uma </tspan><tspan x="22" y="483.942">conversa que poderia ocorrer dentro </tspan><tspan x="22" y="501.942">de um bar, de um caf&#xe9;, ou no sof&#xe1; da </tspan><tspan x="22" y="519.942">sua sala. Por meio de uma conversa </tspan><tspan x="22" y="537.942">informal, os autores fazem uma </tspan><tspan x="22" y="555.942">viagem pela hist&#xf3;ria do pensamento</tspan></text>
</g>
<g id="arrow-left">
<path id="Vector" d="M36.25 53H25.75" stroke="black" stroke-width="1.5" stroke-linecap="round" stroke-linejoin="round"/>
<path id="Vector_2" d="M31 58.25L25.75 53L31 47.75" stroke="black" stroke-width="1.5" stroke-linecap="round" stroke-linejoin="round"/>
</g>
<rect id="Rectangle 2283" x="208.25" y="44.25" width="17.5" height="17.5" rx="1.75" fill="white" stroke="#DCDCDC" stroke-width="0.5"/>
<g id="heart">
<path id="Vector_3" d="M221.42 49.305C221.165 49.0495 220.861 48.8468 220.528 48.7085C220.194 48.5703 219.836 48.4991 219.475 48.4991C219.114 48.4991 218.756 48.5703 218.422 48.7085C218.089 48.8468 217.785 49.0495 217.53 49.305L217 49.835L216.47 49.305C215.954 48.7892 215.255 48.4994 214.525 48.4994C213.796 48.4994 213.096 48.7892 212.58 49.305C212.064 49.8208 211.774 50.5205 211.774 51.25C211.774 51.9795 212.064 52.6792 212.58 53.195L213.11 53.725L217 57.615L220.89 53.725L221.42 53.195C221.676 52.9396 221.878 52.6364 222.017 52.3027C222.155 51.9689 222.226 51.6112 222.226 51.25C222.226 50.8888 222.155 50.531 222.017 50.1973C221.878 49.8636 221.676 49.5604 221.42 49.305Z" stroke="black" stroke-linecap="round" stroke-linejoin="round"/>
</g>
<rect id="Rectangle 2284" x="235.25" y="44.25" width="17.5" height="17.5" rx="1.75" fill="white" stroke="#DCDCDC" stroke-width="0.5"/>
<g id="sliders">
<path id="Vector_4" d="M240 57.5V54" stroke="black" stroke-linecap="round" stroke-linejoin="round"/>
<path id="Vector_5" d="M240 52V48.5" stroke="black" stroke-linecap="round" stroke-linejoin="round"/>
<path id="Vector_6" d="M244 57.5V53" stroke="black" stroke-linecap="round" stroke-linejoin="round"/>
<path id="Vector_7" d="M244 51V48.5" stroke="black" stroke-linecap="round" stroke-linejoin="round"/>
<path id="Vector_8" d="M248 57.5V55" stroke="black" stroke-linecap="round" stroke-linejoin="round"/>
<path id="Vector_9" d="M248 53V48.5" stroke="black" stroke-linecap="round" stroke-linejoin="round"/>
<path id="Vector_10" d="M238.5 54H241.5" stroke="black" stroke-linecap="round" stroke-linejoin="round"/>
<path id="Vector_11" d="M242.5 51H245.5" stroke="black" stroke-linecap="round" stroke-linejoin="round"/>
<path id="Vector_12" d="M246.5 55H249.5" stroke="black" stroke-linecap="round" stroke-linejoin="round"/>
</g>
</g>
</g>
</svg>
