<svg width="285" height="594" viewBox="0 0 285 594" fill="none" xmlns="http://www.w3.org/2000/svg">
<g id="Iphone02">
<rect id="Rectangle 428" width="284.012" height="594" rx="36" fill="#181A1D"/>
<rect id="Rectangle 430" x="125.554" y="15.586" width="31.172" height="3.46356" rx="1.5" fill="#C0C0C0"/>
<ellipse id="Ellipse 20" cx="171.446" cy="17.3178" rx="3.46356" ry="3.46356" fill="#C0C0C0"/>
<path id="Tela02" fill-rule="evenodd" clip-rule="evenodd" d="M61.4778 8.65916C64.8174 8.65916 67.5261 11.36 67.539 14.6966V17.5563C67.539 24.5979 73.2473 30.3063 80.289 30.3063H204.588C211.629 30.3063 217.338 24.5979 217.338 17.5563V14.6251C217.389 11.3215 220.083 8.65905 223.398 8.65903H216.338C216.338 8.65897 216.338 8.6589 216.338 8.65883H246.852C262.592 8.65883 275.352 21.4187 275.352 37.1588V557.707C275.352 573.447 262.592 586.207 246.852 586.207H37.1582C21.4181 586.207 8.6582 573.447 8.6582 557.707V37.1588C8.6582 21.4187 21.4181 8.65883 37.1582 8.65883H68.5385C68.5385 8.6589 68.5385 8.65897 68.5385 8.65903H61.477V8.65916L61.4778 8.65916Z" fill="url(#paint0_linear_103_1507)"/>
</g>
<defs>
<linearGradient id="paint0_linear_103_1507" x1="452.736" y1="-810064" x2="-1059.38" y2="-810063" gradientUnits="userSpaceOnUse">
<stop stop-color="#A3A3A3"/>
<stop offset="1" stop-color="#505050"/>
</linearGradient>
</defs>
</svg>
