<svg viewBox="0 0 282 410" fill="none" xmlns="http://www.w3.org/2000/svg">
<path d="M1 407.612L121.059 253.395C121.059 253.395 129.282 244.945 124.348 238.607C124.348 238.607 118.543 230.685 114.891 226.46C109.957 221.53 106.257 222.235 102.968 226.46L25.2584 323.638V98.1216C26.9031 86.5025 32.6593 90.1995 36.7709 94.4246C39.649 98.1216 234.95 348.46 234.95 348.46C234.95 348.46 240.295 356.91 253.452 356.91C281 356.91 281 319.941 281 319.941V2L156.83 156.217C152.307 162.027 149.84 164.139 156.007 172.061C156.007 172.061 163.408 181.04 166.697 185.265C171.22 191.074 175.332 183.152 175.332 183.152L253.452 85.9743V308.85C253.452 323.638 244.818 315.715 244.818 315.715L42.116 58.511C27.3142 46.8919 6.75624 51.6452 1 79.1085V407.612Z" stroke="#7DFDEB"/>
</svg>
