<svg width="40" height="47" viewBox="0 0 40 47" fill="none" xmlns="http://www.w3.org/2000/svg">
<path d="M0 47L17.1512 29.1302C17.1512 29.1302 18.326 28.151 17.6211 27.4167C17.6211 27.4167 16.7918 26.4987 16.2702 26.0091C15.5653 25.4379 15.0367 25.5195 14.5668 26.0091L3.46549 37.2695V11.138C3.70044 9.79167 4.52276 10.2201 5.11013 10.7096C5.52129 11.138 33.4214 40.1458 33.4214 40.1458C33.4214 40.1458 34.185 41.125 36.0646 41.125C40 41.125 40 36.8411 40 36.8411V0L22.2614 17.8698C21.6153 18.543 21.2628 18.7878 22.1439 19.7057C22.1439 19.7057 23.2012 20.7461 23.6711 21.2357C24.3172 21.9089 24.9046 20.9909 24.9046 20.9909L36.0646 9.73047V35.556C36.0646 37.2695 34.8311 36.3516 34.8311 36.3516L5.87371 6.54818C3.75918 5.20182 0.82232 5.7526 0 8.9349V47Z" fill="url(#paint0_linear_103_1299)"/>
<defs>
<linearGradient id="paint0_linear_103_1299" x1="40" y1="28.0286" x2="0.0575851" y2="28.7615" gradientUnits="userSpaceOnUse">
<stop stop-color="#7DFDEB"/>
<stop offset="1" stop-color="#06B1FF"/>
</linearGradient>
</defs>
</svg>
