<svg width="32" height="32" viewBox="0 0 32 32" fill="none" xmlns="http://www.w3.org/2000/svg">
<rect width="32" height="32" rx="16" fill="#909A9E"/>
<path d="M21.7822 23.2468V21.7468C21.7822 20.9512 21.4662 20.1881 20.9035 19.6255C20.3409 19.0629 19.5779 18.7468 18.7822 18.7468H12.7822C11.9866 18.7468 11.2235 19.0629 10.6609 19.6255C10.0983 20.1881 9.78223 20.9512 9.78223 21.7468V23.2468" stroke="#002433" stroke-width="1.5" stroke-linecap="round" stroke-linejoin="round"/>
<path d="M15.7822 15.7468C17.4391 15.7468 18.7822 14.4037 18.7822 12.7468C18.7822 11.09 17.4391 9.74683 15.7822 9.74683C14.1254 9.74683 12.7822 11.09 12.7822 12.7468C12.7822 14.4037 14.1254 15.7468 15.7822 15.7468Z" stroke="#002433" stroke-width="1.5" stroke-linecap="round" stroke-linejoin="round"/>
</svg>
