<svg width="19" height="22" viewBox="0 0 19 22" fill="none" xmlns="http://www.w3.org/2000/svg">
<path d="M13.2784 7.03978C12.8054 7.00438 12.2974 7.11249 11.5194 7.39665C11.5854 7.37273 10.7774 7.67411 10.5514 7.75065C10.0494 7.91808 9.63638 8.00993 9.17338 8.00993C8.71538 8.00993 8.29338 7.92191 7.80738 7.76595C7.65238 7.71525 7.49638 7.66071 7.30238 7.588C7.22038 7.55738 6.92038 7.44257 6.85438 7.41865C6.20638 7.17564 5.84138 7.08379 5.53838 7.09144C4.38638 7.1058 3.29538 7.74204 2.66238 8.79638C1.37038 10.9433 2.08538 14.823 3.97438 17.4368C4.98038 18.8184 5.53038 19.312 5.75238 19.3053C5.97438 19.2958 6.13738 19.2508 6.53538 19.0901L6.70238 19.0221C7.70738 18.6117 8.41238 18.4309 9.47338 18.4309C10.4944 18.4309 11.1764 18.6088 12.1414 19.0068L12.3094 19.0757C12.7074 19.2384 12.8514 19.2747 13.1014 19.269C13.4594 19.2642 13.9004 18.87 14.8794 17.4952C15.1474 17.1211 15.3844 16.7269 15.5894 16.3279C15.4546 16.2218 15.3239 16.111 15.1974 15.9959C13.9084 14.821 13.1114 13.2367 13.0894 11.2791C13.0678 9.83078 13.5654 8.41905 14.4994 7.27897C14.1074 7.14052 13.6957 7.05987 13.2784 7.03978ZM13.4334 5.13202C14.1414 5.17794 16.1694 5.3846 17.4894 7.23304C17.3814 7.29045 15.0654 8.57632 15.0894 11.2629C15.1254 14.4776 18.0294 15.5453 18.0654 15.5568C18.0414 15.6372 17.5974 17.0838 16.5294 18.5763C15.6054 19.8736 14.6454 21.1595 13.1334 21.1825C11.6454 21.2169 11.1654 20.3444 9.47338 20.3444C7.76938 20.3444 7.24138 21.1595 5.83738 21.2169C4.37338 21.2629 3.26938 19.8162 2.33338 18.5304C0.425378 15.8897 -1.02662 11.0907 0.929378 7.84154C1.90138 6.22271 3.62938 5.2009 5.51338 5.17794C6.94138 5.1435 8.29738 6.09642 9.17338 6.09642C10.0374 6.09642 11.5854 4.99425 13.4334 5.13202ZM12.2934 3.3869C11.5134 4.28242 10.2414 4.98276 9.00538 4.89092C8.83738 3.67393 9.46138 2.39953 10.1814 1.60734C10.9854 0.711823 12.3294 0.0459241 13.4454 0C13.5894 1.23995 13.0734 2.49138 12.2934 3.3869Z" fill="#B8C4C9"/>
</svg>
