<svg width="19" height="20" viewBox="0 0 19 20" fill="none" xmlns="http://www.w3.org/2000/svg">
<path d="M1 0C1.17597 0.000130036 1.34879 0.0446837 1.501 0.129161L17.505 8.99442C17.6565 9.07853 17.7823 9.19924 17.8698 9.34449C17.9572 9.48973 18.0032 9.6544 18.0032 9.82201C18.0032 9.98963 17.9572 10.1543 17.8698 10.2995C17.7823 10.4448 17.6565 10.5655 17.505 10.6496L1.501 19.5149C1.34903 19.599 1.17657 19.6434 1.00098 19.6436C0.825381 19.6438 0.652835 19.5997 0.500694 19.5158C0.348553 19.4319 0.22218 19.3112 0.134287 19.1657C0.0463936 19.0203 7.85313e-05 18.8553 0 18.6873V0.956752C0 0.703005 0.105357 0.459652 0.292893 0.280226C0.48043 0.1008 0.734784 0 1 0ZM9.292 11.1749L4.794 15.4783L10.493 12.322L9.293 11.1739L9.292 11.1749ZM2 4.1944V15.4458L7.88 9.8201L2 4.1944ZM12.284 8.31035L10.706 9.82201L12.284 11.3308L15.008 9.82201L12.283 8.3113L12.284 8.31035ZM4.794 4.16187L9.294 8.46725L10.493 7.31915L4.794 4.16187Z" fill="#B8C4C9"/>
</svg>
